<svg width="256" height="256" viewBox="0 0 256 256" fill="none" xmlns="http://www.w3.org/2000/svg">
  <rect width="256" height="256" rx="54" fill="#0F4C81"/>
  <path d="M128 54C94.8629 54 68 81.4142 68 115.2C68 169.4 109.5 197.1 121 210.4C124.7 214.7 131.3 214.7 135 210.4C146.5 197.1 188 169.4 188 115.2C188 81.4142 161.137 54 128 54Z" fill="#F8FBFF"/>
  <path d="M111 110C111 99.5066 119.507 91 130 91C140.493 91 149 99.5066 149 110V120H159C164.523 120 169 124.477 169 130C169 135.523 164.523 140 159 140H149V150C149 160.493 140.493 169 130 169C119.507 169 111 160.493 111 150V140H101C95.4772 140 91 135.523 91 130C91 124.477 95.4772 120 101 120H111V110Z" fill="#0F4C81"/>
</svg>
