<svg width="640" height="360" viewBox="0 0 640 360" fill="none" xmlns="http://www.w3.org/2000/svg">
  <rect width="640" height="360" rx="32" fill="#F4FAFF"/>
  <circle cx="234" cy="180" r="82" fill="#DCEEFE"/>
  <path d="M234 122C210.252 122 191 141.698 191 166C191 205.04 220.689 225.004 228.91 234.716C231.561 237.849 236.439 237.849 239.09 234.716C247.311 225.004 277 205.04 277 166C277 141.698 257.748 122 234 122Z" fill="#0F4C81"/>
  <rect x="360" y="126" width="92" height="18" rx="9" fill="#0F4C81"/>
  <rect x="360" y="162" width="140" height="14" rx="7" fill="#7AA9D4"/>
  <rect x="360" y="192" width="116" height="14" rx="7" fill="#7AA9D4"/>
  <rect x="360" y="232" width="110" height="34" rx="17" fill="#1476D8"/>
</svg>
